<?xml version="1.0" encoding="utf-8"?>
<!-- Generator: Adobe Illustrator 22.1.0, SVG Export Plug-In . SVG Version: 6.00 Build 0)  -->
<svg version="1.1" id="Слой_1" xmlns:sketch="http://www.bohemiancoding.com/sketch/ns"
	 xmlns="http://www.w3.org/2000/svg" xmlns:xlink="http://www.w3.org/1999/xlink" x="0px" y="0px" viewBox="0 0 32 32"
	 style="enable-background:new 0 0 32 32;" xml:space="preserve">
<style type="text/css">
	.st0{fill:#3757B8;}
</style>
<title></title>
<desc></desc>
<path class="st0" d="M16,9C7,9,3,16,3,16s4,7,13,7s13-7,13-7S25,9,16,9z M16,20c-2.2,0-4-1.8-4-4c0-2.2,1.8-4,4-4s4,1.8,4,4
	C20,18.2,18.2,20,16,20z"/>
<path class="st0" d="M16,13c-1.7,0-3,1.3-3,3s1.3,3,3,3s3-1.3,3-3S17.7,13,16,13z M16,17c-0.6,0-1-0.4-1-1s0.4-1,1-1s1,0.4,1,1
	S16.6,17,16,17z"/>
</svg>
