<svg width="32" height="32" xmlns="http://www.w3.org/2000/svg">
 <title/>
 <desc/>

 <g>
  <title>background</title>
  <rect fill="none" id="canvas_background" height="402" width="582" y="-1" x="-1"/>
 </g>
 <g>
  <title>Layer 1</title>
  <path fill="#3757b8" id="eye-hidden" d="m8.1087,20.8913c-3.49149,-2.06119 -5.1087,-4.8913 -5.1087,-4.8913c0,0 4,-7 13,-7c1.30451,0 2.50398,0.14706 3.60144,0.39856l-2.70279,2.70279c-0.28886,-0.06632 -0.58966,-0.10135 -0.89865,-0.10135c-2.20914,0 -4,1.79086 -4,4c0,0.30899 0.03503,0.60979 0.10135,0.89865l-3.99265,3.99265l0,0l0,0zm4.28986,1.71014c1.09746,0.2515 2.29693,0.39856 3.60144,0.39856c9,0 13,-7 13,-7c0,0 -1.61721,-2.83011 -5.1087,-4.8913l-3.99265,3.99265c0.06632,0.28886 0.10135,0.58966 0.10135,0.89865c0,2.20914 -1.79086,4 -4,4c-0.30899,0 -0.60979,-0.03503 -0.89865,-0.10135l-2.70279,2.70279l0,0l0,0zm6.60144,-6.60144c0,0.76777 -0.29289,1.53553 -0.87868,2.12132c-0.58579,0.58579 -1.35355,0.87868 -2.12132,0.87868l3,-3l0,0l0,0zm-3,-3c-0.76777,0 -1.53553,0.29289 -2.12132,0.87868c-0.58579,0.58579 -0.87868,1.35355 -0.87868,2.12132l3,-3l0,0l0,0zm8,-6l-17,17l1,1l17,-17l-1,-1l0,0z"/>
 </g>
</svg>